<?xml version="1.0" encoding="UTF-8"?>
<svg width="32px" height="32px" viewBox="0 0 32 32" version="1.1" xmlns="http://www.w3.org/2000/svg">
    <title>六盘水旅游预测</title>
    <g stroke="none" stroke-width="1" fill="none" fill-rule="evenodd">
        <circle fill="#36DBFF" cx="16" cy="16" r="16"></circle>
        <path d="M9,10 L23,10 C24.1045695,10 25,10.8954305 25,12 L25,20 C25,21.1045695 24.1045695,22 23,22 L9,22 C7.8954305,22 7,21.1045695 7,20 L7,12 C7,10.8954305 7.8954305,10 9,10 Z" fill="#0D1117"></path>
        <path d="M12,14 L14,14 L14,18 L12,18 L12,14 Z M15,14 L17,14 L17,18 L15,18 L15,14 Z M18,14 L20,14 L20,18 L18,18 L18,14 Z" fill="#36DBFF"></path>
        <path d="M10,8 L22,8 C22.5522847,8 23,8.44771525 23,9 L23,9 L9,9 L9,9 C9,8.44771525 9.44771525,8 10,8 Z" fill="#36DBFF"></path>
    </g>
</svg> 